<?xml version="1.0" standalone="no"?>
<!DOCTYPE svg PUBLIC "-//W3C//DTD SVG 20010904//EN"
 "http://www.w3.org/TR/2001/REC-SVG-20010904/DTD/svg10.dtd">
<svg version="1.0" xmlns="http://www.w3.org/2000/svg"
 width="512.000000pt" height="512.000000pt" viewBox="0 0 512.000000 512.000000"
 preserveAspectRatio="xMidYMid meet">
<metadata>
Created by potrace 1.14, written by Peter Selinger 2001-2017
</metadata>
<g transform="translate(0.000000,512.000000) scale(0.100000,-0.100000)"
fill="#000000" stroke="none">
<path d="M2425 4705 c-38 -8 -79 -16 -90 -19 -11 -2 -40 -9 -64 -14 -51 -12
-93 -50 -93 -83 0 -19 -11 -29 -57 -49 -92 -40 -221 -133 -302 -217 -85 -88
-139 -164 -193 -270 -20 -40 -40 -73 -45 -73 -5 0 -23 -15 -41 -32 -36 -37
-65 -95 -74 -148 -3 -19 -11 -65 -17 -103 -17 -106 7 -311 45 -384 15 -31 74
-93 87 -93 5 0 29 -40 54 -89 119 -231 307 -403 548 -501 l57 -24 0 -59 0 -58
-72 39 c-40 22 -118 63 -173 92 -55 29 -136 72 -180 95 -44 23 -125 66 -180
95 -100 53 -130 69 -327 174 -60 32 -108 63 -109 69 -5 75 -61 132 -139 143
-60 8 -109 -13 -146 -62 -23 -30 -29 -48 -29 -89 0 -29 6 -64 14 -79 18 -33
33 -3 -221 -456 l-194 -345 -42 -3 -42 -3 0 -80 0 -79 80 0 80 0 0 69 0 69
209 373 209 374 43 -2 c59 -4 103 12 134 48 l25 30 127 -67 c71 -37 142 -75
158 -84 17 -9 91 -49 165 -88 74 -39 241 -127 370 -195 l235 -125 3 -41 3 -41
-531 0 -532 0 -19 24 c-47 60 -150 71 -214 22 -66 -50 -82 -137 -40 -212 19
-32 40 18 -239 -559 -54 -110 -109 -226 -124 -257 l-26 -58 -58 0 -58 0 0 -80
0 -80 80 0 80 0 0 36 c0 23 21 78 59 157 123 252 269 556 321 664 l53 112 34
-5 c73 -12 155 47 169 121 l6 35 519 0 519 0 0 -43 0 -43 -147 -84 c-82 -47
-157 -90 -168 -96 -11 -6 -51 -29 -90 -51 -38 -22 -119 -68 -180 -103 -60 -35
-123 -71 -140 -80 -144 -83 -153 -88 -164 -77 -6 6 -38 11 -70 12 -51 0 -64
-4 -98 -31 -21 -17 -44 -47 -52 -67 -18 -49 -7 -118 25 -157 l26 -30 -132
-402 c-72 -222 -133 -409 -135 -415 -3 -8 -24 -13 -60 -13 l-55 0 0 -80 0 -80
80 0 80 0 0 40 c0 22 4 48 10 58 8 13 211 624 211 634 0 2 17 52 37 112 l37
110 53 12 c87 19 139 87 128 170 -3 24 -7 48 -10 52 -4 6 305 188 528 310 34
19 66 37 71 42 6 4 33 20 60 35 28 15 78 43 112 62 l63 35 9 -24 c13 -33 65
-83 109 -104 54 -27 271 -33 341 -9 47 15 111 70 138 119 9 16 30 6 214 -100
112 -64 225 -129 250 -143 25 -14 120 -68 211 -120 l166 -94 -9 -31 c-13 -45
-11 -74 7 -113 21 -43 73 -83 116 -89 18 -3 38 -7 44 -9 6 -2 31 -63 54 -137
170 -519 231 -705 240 -720 6 -10 10 -36 10 -58 l0 -40 80 0 80 0 0 80 0 80
-55 0 c-36 0 -57 4 -60 13 -2 6 -63 193 -135 414 l-132 403 25 30 c53 63 47
153 -14 212 -46 44 -95 56 -157 39 l-44 -11 -434 247 -434 248 0 43 0 42 519
0 519 0 8 -32 c16 -77 79 -127 154 -124 l49 1 80 -165 c44 -91 113 -235 154
-320 41 -85 102 -212 136 -281 41 -84 61 -138 61 -162 l0 -37 80 0 80 0 0 80
0 79 -57 3 -58 3 -37 75 c-20 41 -71 147 -114 235 -42 88 -116 243 -165 344
l-90 184 22 44 c17 34 20 55 15 90 -19 138 -181 190 -277 87 l-22 -24 -529 0
-529 0 3 41 3 41 140 74 c77 41 196 105 265 141 69 36 159 84 200 106 471 250
452 241 462 224 20 -37 71 -61 132 -63 l59 -1 40 -69 c21 -38 54 -96 72 -129
18 -33 94 -170 169 -304 l136 -244 0 -69 0 -68 80 0 80 0 0 79 0 80 -42 3 -42
3 -154 275 c-84 151 -172 309 -194 350 -23 41 -51 90 -63 109 -21 35 -21 35
-2 75 34 71 12 149 -57 200 -21 16 -42 21 -86 21 -51 -1 -64 -5 -97 -31 -26
-21 -43 -46 -53 -78 -15 -45 -20 -50 -100 -93 -268 -142 -453 -240 -515 -273
-38 -21 -119 -63 -180 -95 -60 -32 -143 -75 -183 -97 l-73 -39 3 61 3 61 65
26 c91 37 183 92 274 163 87 69 203 217 263 335 20 39 53 85 74 103 53 46 76
88 94 171 26 123 29 216 10 326 -23 136 -45 183 -112 235 -17 14 -50 61 -73
105 -102 196 -252 343 -462 453 -62 33 -73 43 -79 71 -9 45 -29 56 -154 87
-129 31 -260 38 -360 19z"/>
</g>
</svg>
